<svg width="31" height="31" viewBox="0 0 31 31" fill="none" xmlns="http://www.w3.org/2000/svg">
<path fill-rule="evenodd" clip-rule="evenodd" d="M25.6719 27.9H5.32917C4.23426 27.9 3.42574 26.8196 3.8387 25.8261C5.75478 21.2319 10.2562 18.6 15.4998 18.6C20.7449 18.6 25.2463 21.2319 27.1624 25.8261C27.5754 26.8196 26.7669 27.9 25.6719 27.9ZM9.17083 9.29998C9.17083 5.88068 12.0109 3.09998 15.4998 3.09998C18.9902 3.09998 21.8287 5.88068 21.8287 9.29998C21.8287 12.7193 18.9902 15.5 15.4998 15.5C12.0109 15.5 9.17083 12.7193 9.17083 9.29998ZM30.9313 27.3358C29.781 22.1293 26.183 18.2868 21.4474 16.5431C23.9568 14.5637 25.4204 11.363 24.8824 7.8584C24.259 3.79275 20.8066 0.539365 16.639 0.0650642C10.886 -0.590586 6.00636 3.79593 6.00636 9.29998C6.00636 12.2295 7.3924 14.8396 9.55373 16.5431C4.81652 18.2868 1.2201 22.1293 0.0682372 27.3358C-0.349473 29.2283 1.20745 31 3.18366 31H27.8159C29.7937 31 31.3506 29.2283 30.9313 27.3358Z" fill="#BFBFBF"/>
</svg>
