<svg width="29" height="29" viewBox="0 0 29 29" fill="none" xmlns="http://www.w3.org/2000/svg">
<path d="M24.5847 26.3C25.4818 26.3 26.3 25.5858 26.3 24.663V20.313C26.3 19.3948 25.4866 18.65 24.5847 18.65H20.2347C19.3112 18.65 18.65 19.4183 18.65 20.313V24.663C18.65 25.5626 19.3157 26.3 20.2347 26.3H24.5847ZM20.2347 16.15H24.5847C26.88 16.15 28.8 18.0239 28.8 20.313V24.663C28.8 26.9506 26.8816 28.8 24.5847 28.8H20.2347C17.9457 28.8 16.15 26.9584 16.15 24.663V20.313C16.15 18.0161 17.9473 16.15 20.2347 16.15ZM8.63475 26.3C9.53178 26.3 10.35 25.5858 10.35 24.663V20.313C10.35 19.3948 9.53659 18.65 8.63475 18.65H4.28475C3.36122 18.65 2.7 19.4183 2.7 20.313V24.663C2.7 25.5626 3.36574 26.3 4.28475 26.3H8.63475ZM4.28475 16.15H8.63475C10.93 16.15 12.85 18.0239 12.85 20.313V24.663C12.85 26.9506 10.9316 28.8 8.63475 28.8H4.28475C1.99571 28.8 0.2 26.9584 0.2 24.663V20.313C0.2 18.0161 1.99726 16.15 4.28475 16.15ZM24.5847 10.35C25.4818 10.35 26.3 9.63579 26.3 8.71305V4.36305C26.3 3.44484 25.4866 2.7 24.5847 2.7H20.2347C19.3112 2.7 18.65 3.46832 18.65 4.36305V8.71305C18.65 9.6126 19.3157 10.35 20.2347 10.35H24.5847ZM20.2347 0.2H24.5847C26.88 0.2 28.8 2.07393 28.8 4.36305V8.71305C28.8 11.0006 26.8816 12.85 24.5847 12.85H20.2347C17.9457 12.85 16.15 11.0084 16.15 8.71305V4.36305C16.15 2.0661 17.9473 0.2 20.2347 0.2ZM8.63475 10.35C9.53178 10.35 10.35 9.63579 10.35 8.71305V4.36305C10.35 3.44484 9.53659 2.7 8.63475 2.7H4.28475C3.36122 2.7 2.7 3.46832 2.7 4.36305V8.71305C2.7 9.6126 3.36574 10.35 4.28475 10.35H8.63475ZM4.28475 0.2H8.63475C10.93 0.2 12.85 2.07393 12.85 4.36305V8.71305C12.85 11.0006 10.9316 12.85 8.63475 12.85H4.28475C1.99571 12.85 0.2 11.0084 0.2 8.71305V4.36305C0.2 2.0661 1.99726 0.2 4.28475 0.2Z" fill="#BFBFBF" stroke="#BFBFBF" stroke-width="0.4"/>
</svg>
